<?xml version="1.0" encoding="UTF-8"?>
<svg id="_레이어_2" xmlns="http://www.w3.org/2000/svg" version="1.1" viewBox="0 0 427.8 134.5">
  <!-- Generator: Adobe Illustrator 30.1.0, SVG Export Plug-In . SVG Version: 2.1.1 Build 136)  -->
  <defs>
    <style>
      .st0 {
        fill: #fff;
      }
    </style>
  </defs>
  <g id="_레이어_1-2">
    <path class="st0" d="M75.6,2.1C43.8-6.6,10.6,12.4,2,44.3c-5.6,20.8.6,41.9,14.3,56.5.5.5.7,1.1.8,1.7.6,5,2.3,10.6,3.9,15.2.6,1.8,3.3,1.3,3.2-.6-.1-8.5.8-16.9,3-25.1,2.9-10.4,7.2-20.3,13.8-28.8,0,0,.2-.3.3-.4l-5.6-3c-1.8-1-2.1-3.3-.7-4.7l2.5-2.5c.7-.7,1.7-1,2.6-.8l10.2,1.8c1,.2,1.9,0,2.6-.8l5.1-5.1c1.5-1.5,1-4-.9-4.8l-21-8.9c-1.9-.8-2.4-3.3-1-4.8l3.5-3.6c.7-.7,1.7-1,2.7-.9l32.2,5.7c1,.2,1.9-.1,2.6-.8l10.3-10.3c1.4-1.4,3.2-2.1,5.2-2.1s3.8.7,5.2,2.1c1.4,1.4,2.1,3.1,2.1,5.2s-.7,3.8-2.1,5.2l-10.3,10.3c-.7.7-1,1.7-.8,2.6l5.7,32.1c.2,1,0,1.9-.8,2.6l-3.6,3.6c-1.5,1.5-4,1-4.8-.9l-9-21c-.8-1.9-3.3-2.4-4.8-.9l-5.1,5.1c-.7.7-1,1.7-.8,2.6l1.8,10.1c.2,1,0,1.9-.8,2.6l-2.6,2.6c-1.4,1.4-3.8,1.1-4.7-.7l-2.6-4.9c-1.3,3-3.3,8.3-4.5,15-1.5,6.9-1.8,14.2-.6,21,0,.7.6,2.5,1.3,4.8.8,2.9,1.8,5.8,3.2,8.7,1.3,3.2,2.9,6.3,4.7,8.8,1,1.4,3.2.6,3-1.1l-1.1-9.9c-.2-1.7,1.1-3.2,2.8-3.3,25.5-1.1,48.3-18.6,55.2-44.5,8.3-31.7-10.4-64.2-42-72.9h0Z"/>
    <g>
      <path class="st0" d="M163.2,111.2V6.8h43.3c13.8,0,24.1,2.9,31,8.7s10.3,14.2,10.3,25.3-3.5,20.6-10.4,26.6c-6.9,6.1-17,9.1-30.1,9.1h-14.9v34.6h-29.2ZM192.4,57.8h10.7c5.3,0,9-1.2,11.2-3.7,2.2-2.4,3.3-6.3,3.3-11.7s-1.1-9.7-3.3-12-5.7-3.5-10.6-3.5h-11.3v30.9h0Z"/>
      <path class="st0" d="M260.9,111V0h26.6v111h-26.6Z"/>
      <path class="st0" d="M304.7,22V1.9h26.9v20.2h-26.9ZM304.8,111.2V31.1h26.6v80.1h-26.6Z"/>
      <path class="st0" d="M348.3,134.5V31.2h25.5v6.7h.8c5.6-5.4,13.3-8.1,23.1-8.1s16,3,21.7,9,8.5,15.8,8.5,29.3v1.9c0,28.4-12.3,42.6-37,42.6s-11.7-.9-16.1-2.8v24.7h-26.5ZM385.7,94.6c5.1,0,8.9-1.5,11.3-4.6,2.5-3.1,3.7-8.7,3.7-16.8v-2.5c0-7.9-1.1-13.3-3.4-16.2s-5.9-4.4-10.7-4.4-8.9,1-12,3.1v38.5c2.9,2,6.6,2.9,11,3h.1Z"/>
    </g>
  </g>
</svg>