<?xml version="1.0" encoding="UTF-8"?>
<svg id="_레이어_2" data-name="레이어 2" xmlns="http://www.w3.org/2000/svg" viewBox="0 0 141.8 85.55">
  <defs>
    <style>
      .cls-1 {
        fill: #2877ea;
      }

      .cls-2 {
        fill: #1ec692;
      }
    </style>
  </defs>
  <g id="_레이어_1-2" data-name="레이어 1">
    <g>
      <path class="cls-2" d="M83.66,21.57c-4.48-.36-12.02-.14-16.32-.14-1.12.08-1.33.15-1.06.95,2.59,6.88,17.8,48.67,21.13,57.28.69,1.61,3.12,4.14,5.15,4.9,3.27,1.37,5.94.87,9.69.97,2.84,0,6.14,0,8.08,0,1.05-.1,3,.31,2.38-1.02-2.19-5.94-14-38.05-18.11-49.21-1.11-2.83-1.96-5.75-3.22-8.42-1.53-2.75-4.53-4.87-7.64-5.29h-.09Z"/>
      <path class="cls-1" d="M60.54,21.85c.02-.84.38-1.69.67-2.53,1.58-4.6,5.27-13.66,6.6-18.29.26-1.54-3.51-.85-4.79-1.02-2.2,0-4.57,0-6.79,0-3.9.02-6.02-.14-8.66,1.08-1.96.78-4.37,3.28-5.04,4.89-3.13,8.16-26.21,71.06-29.05,78.67-.26.77,0,.75,1.16.84.44,0,.94.03,1.43.02,2.69,0,7.76,0,10.82,0,4.35.22,8.6-.82,11.17-4.55.88-1.21,1.32-2.49,1.83-3.87,2.34-6.34,9.6-26.05,11.37-30.81.47-1.21.83-1.5,2.6-1.56,2.54-.06,7.27-.01,10.1-.03,1.34,0,2.42,0,3.12-.08.52-.06.84-.18.99-.41.23-.43.01-1-.15-1.53-1.28-3.58-5.18-14.04-6.71-18.24-.29-.86-.67-1.7-.68-2.56v-.05Z"/>
      <path class="cls-2" d="M132.04,58.72c-3.12-5.26-7.94-5.44-13.75-5.27-2.73,0-6.63,0-9.16,0-.85,0-1.47.03-1.84.12-.28.07-.43.2-.47.4,1.18,4.61,5.42,14.65,7.81,21.53,1.53,4.61,3.14,7.85,7.63,9.39,2.86.99,7.52.5,11.21.61,1.51,0,3.2,0,4.63,0,1.35,0,2.37,0,2.96-.08.36-.05.57-.14.67-.31.16-.32,0-.73-.13-1.13-1.04-2.87-4.32-11.64-6.6-17.77-.94-2.37-1.96-5.64-2.94-7.46l-.04-.06Z"/>
      <path class="cls-1" d="M25.15,37.53c1.63-3.32,2.03-5.3,3.89-10.05,3.46-9.39,8.6-23.19,9.74-26.36.14-.47.21-.82-.34-.97-2.58-.27-8.03-.08-11.16-.13-3.8.03-5.72-.17-8.18.73-2.48.88-4.69,2.95-5.78,5.28C10.44,13.58,3.54,32.07,0,42.07c-.08.88,1.4.6,2.01.69,2.48.02,7.83,0,11.15,0,4.89.27,9.37-.83,11.95-5.18l.04-.06Z"/>
    </g>
  </g>
</svg>