<?xml version="1.0" encoding="UTF-8"?>
<svg id="_레이어_1" data-name="레이어_1" xmlns="http://www.w3.org/2000/svg" version="1.1" viewBox="0 0 24 24">
  <!-- Generator: Adobe Illustrator 30.1.0, SVG Export Plug-In . SVG Version: 2.1.1 Build 136)  -->
  <path d="M4,15.5V6c0-.9.2-1.6.7-2.1s1.1-.9,1.8-1.2,1.6-.5,2.6-.6,1.9-.1,2.9-.1,2.1,0,3.1.1,1.8.3,2.6.6,1.3.7,1.7,1.2.6,1.2.6,2.1v9.5c0,1-.3,1.8-1,2.5s-1.5,1-2.5,1l1.5,1.5v.5h-2l-2-2h-4l-2,2h-2v-.5l1.5-1.5c-1,0-1.8-.3-2.5-1s-1-1.5-1-2.5ZM12,4c-1.8,0-3.1.1-3.9.3s-1.4.4-1.7.7h11.2c-.3-.3-.8-.5-1.6-.7s-2.2-.3-4-.3ZM6,10h5v-3h-5v3ZM16.5,12H6h12-1.5ZM13,10h5v-3h-5v3ZM9.6,15.6c.3-.3.4-.6.4-1.1s-.1-.8-.4-1.1-.6-.4-1.1-.4-.8.1-1.1.4-.4.6-.4,1.1.1.8.4,1.1.6.4,1.1.4.8-.1,1.1-.4ZM16.6,15.6c.3-.3.4-.6.4-1.1s-.1-.8-.4-1.1-.6-.4-1.1-.4-.8.1-1.1.4-.4.6-.4,1.1.1.8.4,1.1.6.4,1.1.4.8-.1,1.1-.4ZM7.5,17h9c.4,0,.8-.1,1.1-.4s.4-.6.4-1.1v-3.5H6v3.5c0,.4.1.8.4,1.1.3.3.6.4,1.1.4ZM12,5h5.7H6.5h5.6Z"/>
</svg>